<svg width="18" height="18" viewBox="0 0 18 18" fill="none" xmlns="http://www.w3.org/2000/svg">
<g id="Edit">
<path id="Vector" d="M16.2917 9V13.375C16.2917 14.9858 14.9858 16.2917 13.375 16.2917H4.625C3.01416 16.2917 1.70833 14.9858 1.70833 13.375V4.625C1.70833 3.01416 3.01416 1.70833 4.625 1.70833H9M11.688 3.18325C11.688 3.18325 11.688 4.22617 12.7309 5.2691C13.7738 6.31202 14.8167 6.31202 14.8167 6.31202M6.92528 11.9091L9.11542 11.5962C9.43134 11.551 9.7241 11.4047 9.94976 11.179L15.8597 5.2691C16.4357 4.69311 16.4357 3.75924 15.8597 3.18325L14.8167 2.14032C14.2408 1.56433 13.3069 1.56433 12.7309 2.14032L6.82099 8.05023C6.59533 8.27589 6.44895 8.56865 6.40382 8.88457L6.09094 11.0747C6.02141 11.5614 6.43858 11.9786 6.92528 11.9091Z" stroke="black" stroke-width="1.09375" stroke-linecap="round"/>
</g>
</svg>
